<?xml version="1.0" encoding="UTF-8"?>
<svg width="177px" height="54px" viewBox="0 0 177 54" version="1.1" xmlns="http://www.w3.org/2000/svg" xmlns:xlink="http://www.w3.org/1999/xlink">
    <!-- Generator: Sketch 50 (54983) - http://www.bohemiancoding.com/sketch -->
    <title>1-01</title>
    <desc>Created with Sketch.</desc>
    <defs>
        <linearGradient x1="0.915112817%" y1="50.0166501%" x2="98.9758619%" y2="50.0166501%" id="linearGradient-1">
            <stop stop-color="#FFD700" offset="0%"></stop>
            <stop stop-color="#F35A9A" offset="100%"></stop>
        </linearGradient>
    </defs>
    <g id="Page-1" stroke="none" stroke-width="1" fill="none" fill-rule="evenodd">
        <g id="首页" transform="translate(-71.000000, -68.000000)" fill-rule="nonzero">
            <g id="1-01" transform="translate(73.000000, 70.000000)">
                <polygon id="Shape" fill="#161432" points="58 15 62.104658 15 71.7228774 28.8182033 71.7228774 15 76 15 76 36 71.8820755 36 62.2771226 22.2239405 62.2771226 36 58 36"></polygon>
                <path d="M96.9819039,28.6688327 L83.9268552,28.6688327 C84.0712101,29.7379066 84.6094688,30.7149322 85.4365876,31.4092384 C86.255221,32.0870287 87.2996249,32.426784 88.5697993,32.4285042 C90.0372323,32.4480137 91.4500649,31.8736772 92.4863139,30.8363853 L95.9090633,32.4414063 C95.1334492,33.5819875 94.0778496,34.5050547 92.8430657,35.1224624 C91.5143212,35.7331604 90.0632317,36.0323789 88.6008212,35.9972247 C86.0604724,35.9972247 83.9923459,35.1972946 82.3964416,33.5974344 C80.8005373,31.9975741 80.0017234,29.9943083 80,27.5876368 C80,25.1207556 80.7962287,23.0727625 82.3886861,21.4436575 C83.9811436,19.8145525 85.9786091,19 88.3810827,19 C90.9317721,19 93.0059307,19.8145525 94.6035584,21.4436575 C96.2011861,23.0727625 97,25.2231122 97,27.8947068 L96.9819039,28.6688327 Z M92.9180353,25.4742731 C92.6559308,24.5820344 92.0957984,23.806207 91.3307482,23.2757555 C90.5279784,22.7076235 89.564041,22.4110145 88.5801399,22.4293778 C87.5077528,22.4098591 86.4589587,22.744604 85.5968674,23.3815527 C85.0591545,23.777217 84.5619424,24.4756507 84.1052311,25.4768535 L92.9180353,25.4742731 Z" id="Shape" fill="#161432"></path>
                <polygon id="Shape" fill="#161432" points="97 20 100.998701 20 104.272491 29.6720396 107.798311 20 110.243261 20 113.698928 29.5716566 116.975317 20.0108522 121 20.0108522 115.0734 37 112.475154 37 109.003897 27.3143951 105.428711 37 102.861643 37"></polygon>
                <path d="M123,36 L123,15 L126.508745,15 C128.544099,15 130.036808,15.1239523 130.986874,15.3718569 C132.234225,15.6529553 133.352551,16.3038987 134.176882,17.2286625 C134.964918,18.1273406 135.385376,19.2616626 135.362269,20.426632 C135.37661,21.1816184 135.195811,21.9285787 134.835431,22.6032346 C134.40554,23.3309273 133.806767,23.9579875 133.083692,24.4377287 C134.439423,25.0376579 135.430758,25.7871562 136.057696,26.6862236 C136.700773,27.6382925 137.028144,28.7489687 136.998103,29.876756 C137.008784,31.0164526 136.671402,32.1350545 136.026086,33.099516 C135.423343,34.0309207 134.555553,34.7849109 133.520968,35.2761185 C132.498901,35.7570535 131.086973,35.997521 129.285185,35.997521 L123,36 Z M127.24632,18.8003778 L127.24632,23.2254752 L128.17619,23.2254752 C129.212306,23.2254752 129.98149,23.0205407 130.483743,22.6106717 C130.991539,22.190337 131.268744,21.5755404 131.237122,20.9397946 C131.265153,20.342669 131.001166,19.7663266 130.520622,19.3755165 C130.042955,18.990438 129.316796,18.7978987 128.342144,18.7978987 L127.24632,18.8003778 Z M127.24632,26.7953016 L127.24632,32.187227 L128.299997,32.187227 C130.056126,32.187227 131.245025,31.9781608 131.866695,31.5600283 C132.482265,31.1369248 132.828293,30.4492398 132.786028,29.7329713 C132.82002,28.8957223 132.416659,28.095776 131.706009,27.5910754 C130.985996,27.0671703 129.789194,26.8052178 128.115603,26.8052178 L127.24632,26.7953016 Z" id="Shape" fill="#161432"></path>
                <path d="M155.981904,28.6688327 L142.926855,28.6688327 C143.071268,29.7392067 143.610532,30.7173053 144.439173,31.4118189 C145.257806,32.0896091 146.30221,32.4293644 147.572384,32.4310847 C149.039301,32.4492125 150.451123,31.8739769 151.486314,30.8363853 L154.909063,32.4414063 C154.133449,33.5819875 153.07785,34.5050547 151.843066,35.1224624 C150.514321,35.7331604 149.063232,36.0323789 147.600821,35.9972247 C145.060472,35.9972247 142.992346,35.1972946 141.396442,33.5974344 C139.800537,31.9975741 139.001723,29.9943083 139,27.5876368 C139,25.1207556 139.796229,23.0727625 141.388686,21.4436575 C142.981144,19.8145525 144.978609,19 147.381083,19 C149.931772,19 152.005931,19.8145525 153.603558,21.4436575 C155.201186,23.0727625 156,25.2231122 156,27.8947068 L155.981904,28.6688327 Z M151.918035,25.4742731 C151.653923,24.5809044 151.090943,23.8049243 150.322993,23.2757555 C149.520223,22.7076235 148.556286,22.4110145 147.572384,22.4293778 C146.499997,22.4098591 145.451203,22.744604 144.589112,23.3815527 C144.051399,23.777217 143.554187,24.4756507 143.097476,25.4768535 L151.918035,25.4742731 Z" id="Shape" fill="#161432"></path>
                <path d="M174.974148,28.6689319 L161.9191,28.6689319 C162.063512,29.7393169 162.602777,30.7174256 163.431417,31.4119463 C164.250051,32.0897435 165.294455,32.4295022 166.564629,32.4312225 C168.031546,32.4493505 169.443367,31.874109 170.478558,30.8365068 L173.901308,32.4415443 C173.125694,33.5821372 172.070094,34.5052138 170.83531,35.1226279 C169.50893,35.7321754 168.060627,36.0313696 166.600821,35.9973992 C164.060472,35.9973992 161.992346,35.1974609 160.396442,33.5975842 C158.800537,31.9977076 158.001723,29.9944211 158,27.587725 C158,25.1208184 158.796229,23.0728043 160.388686,21.4436826 C161.981144,19.8145609 163.978609,19 166.381083,19 C168.931772,19 171.005931,19.8145609 172.603558,21.4436826 C174.201186,23.0728043 175,25.2231761 175,27.8947981 L174.974148,28.6689319 Z M170.91028,25.4743395 C170.648175,24.5820917 170.088043,23.8062563 169.322993,23.2757994 C168.520223,22.7076615 167.556286,22.4110495 166.572384,22.429413 C165.499997,22.4098941 164.451203,22.7446424 163.589112,23.3815977 C163.051399,23.7772661 162.554187,24.4757069 162.097476,25.47692 L170.91028,25.4743395 Z" id="Shape" fill="#161432"></path>
                <path d="M41.9925299,35.3019485 L41.9925299,15.7738113 C42.8659967,15.2682721 43.2263087,14.186528 42.8318008,13.2541159 C42.4372929,12.3217038 41.4122603,11.832393 40.4442029,12.1143692 L23.5426961,2.02846454 C23.5426961,2.02846454 23.5426961,2.01307796 23.5426961,2.00538466 C23.5426961,1.28892974 23.1625057,0.626898077 22.5453388,0.268670605 C21.928172,-0.0895568682 21.1677911,-0.0895568682 20.5506243,0.268670605 C19.9334574,0.626898077 19.553267,1.28892974 19.553267,2.00538466 C19.553267,2.00538466 19.553267,2.02590011 19.553267,2.03615783 L2.68747121,12.1733511 C1.72427916,11.8128658 0.646403163,12.248203 0.198971678,13.1784169 C-0.248459806,14.1086308 0.0814294523,15.2283645 0.960589214,15.7635536 L0.960589214,35.2942552 C0.0550523387,35.8649146 -0.24222143,37.0516879 0.28647175,37.98546 C0.815164931,38.9192321 1.98194853,39.2681776 2.93234665,38.7767517 L19.7114158,48.7780301 C20.0411514,49.5591454 20.8242055,50.0470708 21.6667319,49.9963985 C22.5092584,49.9457262 23.2288668,49.3674258 23.4636217,48.5523602 L39.88303,38.6844322 C40.4878836,39.0982593 41.2695445,39.1459768 41.9197595,38.808767 C42.5699745,38.4715571 42.9843862,37.803541 42.9995686,37.0681553 C43.0147509,36.3327696 42.6282672,35.6480412 41.9925299,35.2839975 L41.9925299,35.3019485 Z M22.9203043,46.5572334 C22.530578,46.1827021 22.0062021,45.9834578 21.4674971,46.005218 C20.9287922,46.0269781 20.4220064,46.2678747 20.0634242,46.6726328 L4.32507571,37.2842532 L12.7426689,36.7380295 C12.9622411,37.5425205 13.6548292,38.1259318 14.4811207,38.2024387 C15.3074122,38.2789455 16.0943413,37.8325237 16.4563758,37.081884 C16.8184103,36.3312443 16.6797225,35.4336075 16.1082583,34.8287435 C15.5367941,34.2238795 14.6522461,34.0384765 13.8879717,34.363367 L3.32516767,15.4942884 C3.43579158,15.3895985 3.53420495,15.2725914 3.61850804,15.1455259 L39.1637084,36.2430945 C39.0762529,36.4482403 39.0236567,36.6666853 39.0081105,36.8893309 L22.9203043,46.5572334 Z M21.5479816,4.01076921 C21.8901774,4.01139801 22.2267208,3.92305766 22.5249325,3.75432617 L38.6458989,13.3683756 L30.4604272,13.9453724 C30.2417668,13.1575244 29.5690816,12.5821398 28.760519,12.4913475 C27.9519563,12.4005551 27.1695761,12.8125524 26.783406,13.5324849 C26.3972359,14.2524173 26.4846757,15.1359891 27.0043708,15.7653138 C27.5240659,16.3946385 28.3718539,16.643581 29.1467725,16.3944034 L39.7580415,35.4609432 C39.7104268,35.4985548 39.665363,35.5378761 39.6228499,35.578907 L3.91950076,14.3941478 C3.95514591,14.1853912 3.95514591,13.9720544 3.91950076,13.7632979 L20.565929,3.76201946 C20.866372,3.92892802 21.2047411,4.01463546 21.5479816,4.01076921 Z M30.5165445,14.7506036 L39.0055597,14.1505269 C39.0427314,14.825265 39.4158449,15.4356614 39.9978154,15.7738113 L39.9978154,34.2530965 L29.843137,16.0071745 C30.2136753,15.6858268 30.4534207,15.2384645 30.5165445,14.7506036 Z M12.6840008,35.9353628 L3.88123898,36.5072308 C3.74258945,35.9978681 3.40992706,35.5639229 2.95530372,35.2993841 L2.95530372,16.4687719 L13.2196659,34.8249645 C12.929017,35.1289839 12.741512,35.5176695 12.6840008,35.9353628 Z" id="Shape" stroke="url(#linearGradient-1)" stroke-width="2.88" fill="url(#linearGradient-1)"></path>
            </g>
        </g>
    </g>
</svg>